<?xml version="1.0" encoding="UTF-8"?>
<svg id="Layer_1" data-name="Layer 1" xmlns="http://www.w3.org/2000/svg" viewBox="0 0 219.57 74.55">
  <defs>
    <style>
      .cls-1 {
        fill: #021413;
      }

      .cls-1, .cls-2 {
        stroke-width: 0px;
      }

      .cls-2 {
        fill: #99df58;
      }
    </style>
  </defs>
  <path class="cls-1" d="M81.16,52.23c1.15,1.11,2.52,1.67,4.1,1.67s3.03-.58,4.19-1.73c1.15-1.15,1.73-2.55,1.73-4.19v-1.4c0-.09-.03-.15-.09-.18-.06-.03-.13-.03-.22,0-1.73,1.05-3.6,1.58-5.61,1.58-2.98,0-5.53-1.06-7.65-3.18-2.12-2.12-3.18-4.67-3.18-7.65s1.06-5.53,3.18-7.65c2.12-2.12,4.67-3.18,7.65-3.18h12.73v4.91h-3.3c-.09,0-.15.03-.18.09-.03.06-.03.13,0,.22,1.05,1.73,1.58,3.6,1.58,5.61v10.83c0,2.98-1.06,5.53-3.18,7.65-2.12,2.12-4.67,3.18-7.65,3.18s-5.48-1.04-7.59-3.11l3.49-3.46ZM89.44,32.96c-1.16-1.15-2.55-1.73-4.19-1.73s-3.03.58-4.19,1.73c-1.15,1.16-1.73,2.55-1.73,4.19s.58,3.03,1.73,4.19,2.55,1.73,4.19,1.73,3.03-.58,4.19-1.73c1.15-1.15,1.73-2.55,1.73-4.19s-.58-3.03-1.73-4.19"/>
  <path class="cls-1" d="M105.91,27.9c1.72-1.05,3.6-1.58,5.61-1.58.64,0,1.29.06,1.93.17.09.03,1.18.14,3.11,1.19-1.25,1.12-2.19,2.35-2.97,3.64,0,.06-.02.11-.07.15-.04.04-.1.05-.15.02-.61-.18-1.23-.26-1.84-.26-1.64,0-3.03.58-4.19,1.73s-1.73,2.55-1.73,4.19v10.61c0,.15-.07.22-.22.22h-4.52c-.12,0-.17-.07-.17-.22v-21.27c0-.12.06-.17.17-.17h4.52c.15,0,.22.06.22.17v1.23c0,.09.04.15.11.17.07.03.14.03.2,0"/>
  <path class="cls-1" d="M125.47,47.98c-2.98,0-5.53-1.06-7.65-3.18-2.12-2.12-3.18-4.67-3.18-7.65s1.06-5.53,3.18-7.65c2.12-2.12,4.67-3.18,7.65-3.18,2.02,0,3.89.53,5.61,1.58.09.03.16.03.22,0,.06-.03.09-.09.09-.18v-1.23c0-.12.07-.17.22-.17h4.52c.12,0,.17.06.17.17v21.27c0,.15-.06.22-.17.22h-4.52c-.15,0-.22-.07-.22-.22v-1.18c0-.09-.03-.15-.09-.18-.06-.03-.13-.03-.22,0-1.73,1.05-3.6,1.58-5.61,1.58M129.66,32.96c-1.16-1.15-2.55-1.73-4.19-1.73s-3.03.58-4.19,1.73c-1.15,1.16-1.73,2.55-1.73,4.19s.58,3.03,1.73,4.19,2.55,1.73,4.19,1.73,3.03-.58,4.19-1.73c1.15-1.15,1.73-2.55,1.73-4.19s-.58-3.03-1.73-4.19"/>
  <path class="cls-1" d="M144.37,27.9c1.72-1.05,3.6-1.58,5.61-1.58,2.98,0,5.53,1.06,7.65,3.18,2.12,2.12,3.18,4.67,3.18,7.65v10.65c0,.12-.06.18-.18.18h-4.52c-.15,0-.22-.06-.22-.18v-10.65c0-1.64-.58-3.03-1.73-4.19-1.15-1.15-2.55-1.73-4.19-1.73s-3.03.58-4.19,1.73-1.73,2.55-1.73,4.19v10.61c0,.15-.07.22-.22.22h-4.52c-.12,0-.17-.07-.17-.22v-21.27c0-.12.06-.17.17-.17h4.52c.15,0,.22.06.22.17v1.23c0,.09.04.15.11.17.07.03.14.03.2,0"/>
  <path class="cls-1" d="M164.5,37.06l.04-5.74c0-.12-.06-.18-.17-.18h-3.07c-.12,0-.18-.07-.18-.22v-4.52c0-.12.06-.18.18-.18h3.07c.12,0,.17-.07.17-.22l-.04-8.6c0-.15.06-.22.17-.22h4.52c.15,0,.22.07.22.22l.04,3.51v5.31h11.02c.15,0,.22.06.22.18v21.27c0,.15-.07.22-.22.22h-4.12c-3.29,0-6.89-1.31-8.87-3.4-1.99-2.09-2.98-4.57-2.98-7.43M175.78,42.85v-11.71h-6.11c-.15,0-.22.06-.22.18l-.04,5.74c0,1.4.45,2.65,1.34,3.75.89,1.1,3.51,2.04,5.04,2.04M176,17.2h4.47c.15,0,.22.07.22.22v4.47c0,.15-.07.22-.22.22h-4.47c-.15,0-.22-.07-.22-.22v-4.47c0-.15.07-.22.22-.22"/>
  <path class="cls-1" d="M203.41,26.58l-8.07,21.27c-.03.09-.09.13-.18.13h-4.91c-.09,0-.15-.04-.18-.13l-8.07-21.27c-.03-.06-.02-.12.02-.17.04-.06.11-.09.2-.09h4.74c.09,0,.15.04.17.13l5.39,13.51c.03.09.09.13.17.13s.15-.04.18-.13l5.39-13.51c.03-.09.09-.13.17-.13h4.78c.06,0,.11.03.15.09.04.06.05.12.02.17"/>
  <path class="cls-2" d="M51.27,25.07c2.85,3.22,4.58,7.45,4.58,12.09s-1.73,8.87-4.58,12.09c2.47.94,5.17,1.08,7.72.45,0-.05,0-.1,0-.15v-24.77c0-.05,0-.1,0-.15-2.54-.63-5.25-.49-7.72.45"/>
  <path class="cls-2" d="M25.49,23.49c3.22-2.85,7.46-4.59,12.1-4.59s8.85,1.72,12.07,4.56c.94-2.47,1.08-5.17.45-7.72-.05,0-.1,0-.15,0h-24.77c-.05,0-.1,0-.15,0-.64,2.55-.49,5.27.46,7.74"/>
  <path class="cls-2" d="M49.66,50.85c-3.22,2.84-7.44,4.56-12.07,4.56s-8.88-1.73-12.1-4.59c-.94,2.48-1.09,5.19-.46,7.74.05,0,.1,0,.15,0h24.77c.05,0,.1,0,.15,0,.63-2.55.49-5.25-.45-7.72"/>
  <path class="cls-2" d="M23.9,49.24c-2.84-3.22-4.57-7.45-4.57-12.08s1.73-8.86,4.57-12.08c-2.48-.95-5.19-1.09-7.75-.46,0,.05,0,.1,0,.15v24.77c0,.05,0,.1,0,.15,2.56.64,5.27.49,7.75-.46"/>
  <path class="cls-2" d="M28.43,28.02c5.05,5.05,5.05,13.23,0,18.28,5.05-5.05,13.23-5.05,18.28,0-5.05-5.05-5.05-13.23,0-18.28-5.05,5.05-13.23,5.05-18.28,0"/>
</svg>