<?xml version="1.0" encoding="UTF-8"?>
<svg id="Layer_1" data-name="Layer 1" xmlns="http://www.w3.org/2000/svg" viewBox="0 0 60.21 75.2">
  <defs>
    <style>
      .cls-1 {
        fill: #8dc84d;
      }

      .cls-1, .cls-2 {
        stroke-width: 0px;
      }

      .cls-2 {
        fill: #a8dc6c;
      }
    </style>
  </defs>
  <path class="cls-1" d="M18.46,55.39c.07-.63.18-1.47.37-2.5.08,1.05-.03,1.88-.37,2.5Z"/>
  <path class="cls-2" d="M.63,47.37c-.04.26-.08.52-.12.79.01-.08.02-.16.03-.24.03-.18.06-.37.09-.55Z"/>
  <path class="cls-1" d="M3.96,75.2v-18.4h14.39s.01-.48.11-1.41c.34-.62.45-1.45.37-2.5,0-.11-.02-.23-.03-.35.03-.01.06-.01.09-.02,11.34-2.69,21.66-16.7,22.48-30.54,4.89-2.28,10.02-3.38,15.41-3.25,1.12.11,2.24.23,3.32.34,1.77,23.15-18.59,55.39-56.14,56.13Z"/>
  <path class="cls-2" d="M56.78.57v18.16c-5.39-.13-10.52.97-15.41,3.25-11.17,5.1-17.72,13.61-21.07,24.49-.01.03-.02.05-.02.08-.59,1.92-1.08,3.92-1.48,5.99.01.12.03.24.03.35-.19,1.03-.3,1.87-.37,2.5-.1.93-.11,1.41-.11,1.41H.22c-.32-1.7-.25-3.9-.04-6.03.03-.31.06-.62.1-.93.07-.57.14-1.14.23-1.68.04-.27.08-.53.12-.79.05-.26.09-.51.13-.75.02-.12.04-.24.06-.36.05-.23.09-.45.13-.67.02-.1.04-.21.06-.31.04-.19.07-.36.1-.53.04-.19.08-.37.11-.53.04-.18.08-.34.11-.47.01-.09.03-.18.06-.27.02-.09.04-.18.06-.27h.01C6.54,22.46,24.24,4.91,45.38,1.02c3.54-.65,7.05-1.66,11.4-.45Z"/>
  <path class="cls-2" d="M20.28,46.55c-.67,2.4-1.11,4.4-1.39,5.97-.02.13-.05.25-.06.37,0-.11-.02-.23-.03-.35.4-2.07.89-4.07,1.48-5.99Z"/>
</svg>